<svg width="171" height="196" viewBox="0 0 171 196" fill="none" xmlns="http://www.w3.org/2000/svg">
<path d="M85.5 191.789C84.1641 191.789 82.8282 191.33 81.6926 190.449C32.4967 152.512 4.07464 95.818 3.67385 34.8742C3.64046 31.3141 5.74456 28.175 8.75042 27.2562L83.7633 4.44062C84.8989 4.09609 86.1012 4.09609 87.2701 4.44062L162.283 27.2562C165.289 28.175 167.36 31.3141 167.36 34.8742C166.992 95.7797 138.537 152.512 89.3408 190.449C88.1719 191.33 86.836 191.789 85.5 191.789ZM17.4674 40.8078C19.5381 92.6406 44.0526 140.837 85.5 174.486C126.947 140.837 151.462 92.6406 153.533 40.8078L85.5 20.0977L17.4674 40.8078Z" fill="#538AF1"/>
<path d="M83.0714 50.7572C75.2428 51.3897 69.3286 55.2566 66.1071 61.8547C65.5357 63.0191 65 64.3487 65 64.5859C65 64.6434 64.9714 64.6937 64.9428 64.6937C64.9143 64.6937 64.8857 64.7512 64.8786 64.8159C64.8714 64.9525 64.8357 65.0891 64.7643 65.2687C64.6428 65.6066 64.2071 67.3316 64.1143 67.8562C64.0928 67.9928 64.0571 68.1869 64.0357 68.2803C64.0214 68.3809 63.9857 68.6181 63.9643 68.8122C63.9428 69.0134 63.9071 69.1931 63.8928 69.2147C63.8357 69.3081 63.7214 70.5731 63.6928 71.4644C63.6857 71.6584 63.6571 71.8094 63.6214 71.8094C63.5928 71.8094 63.6 71.8741 63.6428 71.9531C63.7 72.0537 63.7 72.0969 63.6428 72.0969C63.5928 72.0969 63.5857 72.14 63.6357 72.2334C63.6786 72.3053 63.6928 72.3844 63.6714 72.4059C63.65 72.4275 63.6357 75.2234 63.6428 78.6231L63.65 84.8044L63.4643 84.9481C63.3643 85.0272 62.9714 85.1637 62.5857 85.2572C61.45 85.5159 60.6857 85.7891 59.9857 86.1772C59.2071 86.6084 58.9214 86.8312 58.2714 87.4925C56.8 88.9875 55.8857 91.5175 55.75 94.45C55.7143 95.1616 55.7214 116.171 55.7571 116.911C55.8143 118.169 55.9571 119.204 56.0857 119.376C56.1357 119.434 56.1357 119.462 56.0786 119.462C56.0286 119.462 56.0143 119.498 56.05 119.556C56.0786 119.599 56.1071 119.671 56.1143 119.714C56.1214 119.75 56.1928 119.958 56.2786 120.16C56.3571 120.368 56.4 120.541 56.3714 120.541C56.3428 120.541 56.3571 120.569 56.3928 120.598C56.4643 120.648 56.6571 121.037 56.6571 121.116C56.6571 121.137 56.7 121.202 56.7571 121.267C56.8143 121.331 56.8428 121.396 56.8214 121.417C56.8 121.439 56.8643 121.54 56.9643 121.647C57.0571 121.748 57.1428 121.856 57.1428 121.87C57.1428 121.971 57.7428 122.711 58.0143 122.948C58.1857 123.099 58.2571 123.178 58.1786 123.121C58.05 123.027 58.0428 123.027 58.1357 123.142C58.1857 123.214 58.2571 123.272 58.2928 123.272C58.3286 123.272 58.4143 123.329 58.4857 123.394C58.7643 123.66 58.9643 123.804 59.35 124.012C60.6 124.688 61.2571 124.882 63.0714 125.112C63.8643 125.205 66.3643 125.22 85.3643 125.212C107.55 125.212 107.671 125.212 109.036 124.932C110.614 124.609 111.871 123.969 112.829 122.992C113.979 121.827 114.529 120.533 114.75 118.492C114.836 117.723 114.857 115.567 114.857 106.302C114.857 100.107 114.843 94.9962 114.829 94.9459C114.807 94.8884 114.779 94.4931 114.757 94.0691C114.729 93.6378 114.7 93.2641 114.686 93.2353C114.664 93.2066 114.636 93.0412 114.614 92.8687C114.493 91.8409 114.071 90.4106 113.636 89.5409C113.421 89.1312 112.871 88.2759 112.65 88.0244C112.207 87.5284 111.514 86.8744 111.407 86.8456C111.314 86.8241 111.143 86.63 111.136 86.5294C111.136 86.4791 111.107 86.5006 111.079 86.5797C111.021 86.7162 111.021 86.7162 110.971 86.5581C110.936 86.4575 110.879 86.4072 110.821 86.4287C110.764 86.4503 110.686 86.4144 110.643 86.3569C110.593 86.2994 110.507 86.2562 110.457 86.2562C110.4 86.2562 110.357 86.2203 110.357 86.1844C110.357 86.1412 110.307 86.1125 110.25 86.1125C110.193 86.1125 110.143 86.0766 110.143 86.0406C110.143 85.9975 110.079 85.9687 110 85.9687C109.921 85.9687 109.857 85.9328 109.857 85.8897C109.857 85.8537 109.829 85.8394 109.786 85.8609C109.75 85.8825 109.714 85.8681 109.714 85.825C109.714 85.7819 109.686 85.7675 109.643 85.7891C109.607 85.8106 109.571 85.8034 109.571 85.7603C109.571 85.7244 109.514 85.7028 109.45 85.7172C109.379 85.7244 109.236 85.6884 109.129 85.6381C109.021 85.5806 108.907 85.5447 108.879 85.5447C108.85 85.5519 108.764 85.5375 108.7 85.5159C108.371 85.3866 108.314 85.3722 108.207 85.3506C108.143 85.3362 108.014 85.2931 107.921 85.2572C107.829 85.2212 107.729 85.1997 107.707 85.2069C107.679 85.2069 107.586 85.1494 107.493 85.0703C107.393 84.9769 107.35 84.9697 107.386 85.0344C107.414 85.0919 107.357 85.0487 107.257 84.9409L107.071 84.7397V78.6519C107.064 75.3025 107.05 72.3053 107.036 71.9891C106.986 71.1481 106.936 70.5084 106.9 70.2641C106.879 70.0916 106.714 69.0494 106.614 68.4312C106.464 67.5328 106.4 67.2094 106.357 67.2094C106.329 67.2094 106.314 67.1375 106.321 67.0441C106.329 66.9578 106.314 66.85 106.286 66.8141C106.25 66.7709 106.207 66.6416 106.193 66.5266C106.129 66.1959 106.093 66.0378 106.014 65.8366C105.971 65.7287 105.957 65.6281 105.971 65.6066C105.993 65.585 105.957 65.4484 105.9 65.3047C105.836 65.1537 105.786 64.9669 105.786 64.8806C105.786 64.7656 105.771 64.7512 105.721 64.8303C105.671 64.9022 105.643 64.8375 105.607 64.6003C105.579 64.4134 105.521 64.2625 105.486 64.2625C105.443 64.2625 105.429 64.1978 105.45 64.1187C105.471 64.0397 105.457 63.975 105.421 63.975C105.386 63.975 105.357 63.9247 105.357 63.8672C105.357 63.8097 105.329 63.7594 105.286 63.7594C105.25 63.7594 105.243 63.7091 105.264 63.6372C105.3 63.5581 105.286 63.5366 105.221 63.5797C105.15 63.6228 105.143 63.5941 105.179 63.4719C105.214 63.3497 105.207 63.3209 105.143 63.3641C105.086 63.4 105.064 63.3928 105.1 63.3425C105.15 63.2634 104.9 62.6741 104.414 61.7109C104.257 61.3947 104.021 60.9419 103.907 60.7047C103.786 60.4675 103.664 60.2591 103.636 60.2375C103.614 60.2159 103.521 60.0578 103.429 59.8853C103.343 59.7128 103.243 59.5331 103.207 59.49C102.993 59.2312 102.607 58.6778 102.457 58.4191C102.364 58.2537 102.286 58.1459 102.286 58.1747C102.286 58.2034 102.243 58.1891 102.186 58.1387C102.129 58.0884 102.1 58.0237 102.121 57.995C102.136 57.9662 102.071 57.8584 101.971 57.7578C101.864 57.6572 101.786 57.535 101.786 57.4919C101.786 57.4487 101.764 57.4344 101.736 57.4559C101.714 57.4847 101.643 57.4416 101.593 57.3625C101.536 57.2834 101.457 57.2331 101.421 57.2547C101.386 57.2834 101.357 57.2403 101.357 57.1684C101.357 57.0894 101.214 56.8881 101.036 56.7156C100.864 56.5431 100.736 56.3778 100.757 56.3419C100.779 56.3131 100.729 56.2844 100.65 56.2844C100.571 56.2844 100.493 56.2197 100.464 56.1406C100.443 56.0616 100.371 55.9969 100.314 55.9969C100.257 55.9969 100.214 55.9466 100.214 55.8891C100.214 55.8316 100.164 55.7812 100.1 55.7812C100.043 55.7812 100.014 55.7453 100.036 55.7094C100.057 55.6662 100.029 55.6375 99.9714 55.6375C99.9071 55.6375 99.8571 55.6016 99.8571 55.5584C99.8571 55.5225 99.8357 55.5009 99.8071 55.5153C99.7714 55.5369 99.7071 55.5081 99.6571 55.4506C99.6071 55.3931 99.5928 55.35 99.6214 55.35C99.65 55.3428 99.5928 55.2925 99.4857 55.235C99.3714 55.1775 99.2857 55.0984 99.2857 55.0625C99.2857 55.0194 99.2357 54.9906 99.1786 54.9906C99.1214 54.9906 99.0714 54.9547 99.0714 54.9187C99.0714 54.8756 99.0357 54.8469 99 54.8469C98.9571 54.8469 98.85 54.7678 98.7571 54.6672C98.6643 54.5666 98.5714 54.4875 98.5428 54.4875C98.4928 54.4875 98.0643 54.1928 98 54.1209C97.9786 54.0994 97.8643 54.0275 97.7357 53.9628C97.6143 53.8981 97.4714 53.8047 97.4143 53.7544C97.2857 53.6322 96.9928 53.4525 96.3928 53.1434C96.1214 53.0069 95.8714 52.8559 95.85 52.82C95.8286 52.7841 95.7857 52.7553 95.7643 52.7553C95.7357 52.7553 95.5786 52.6978 95.4143 52.6259C92.7428 51.4903 90.6643 50.98 87.7571 50.75C86.6857 50.6637 84.1571 50.6709 83.0714 50.7572ZM86.4643 59.4828C87.2 59.5547 87.4643 59.5906 88.1786 59.7056C88.8214 59.8134 90.2 60.1872 90.4214 60.3166C90.5428 60.3812 90.95 60.5394 90.9857 60.5322C91.0571 60.5034 92.9357 61.5959 93.0714 61.7541C93.0928 61.7756 93.2357 61.8834 93.3857 62.0056C93.5428 62.1206 93.7357 62.2787 93.8143 62.3578C93.9 62.4369 94.0643 62.5806 94.1786 62.6669C94.3 62.7603 94.3428 62.8178 94.2857 62.7891C94.2286 62.7603 94.2786 62.8322 94.4 62.9472C94.5928 63.1197 95.1 63.7162 95.5214 64.2697C95.5928 64.3631 95.7143 64.5572 95.7928 64.6937C95.8714 64.8303 95.9928 65.0387 96.0714 65.1609C96.2071 65.3766 96.5928 66.0666 96.6071 66.1312C96.6143 66.1528 96.6786 66.2966 96.75 66.4547C96.8214 66.6128 96.8786 66.7637 96.8714 66.7925C96.8643 66.8284 96.8857 66.85 96.9143 66.85C96.95 66.85 96.9786 66.8931 96.9857 66.9362C97 67.1447 97.1928 67.5687 97.25 67.5184C97.2786 67.4825 97.2857 67.4969 97.2571 67.5472C97.2286 67.5975 97.3071 67.9066 97.4214 68.2444C97.5357 68.575 97.6143 68.8697 97.5928 68.8912C97.5714 68.9128 97.5928 68.9775 97.6428 69.0422C97.6928 69.1069 97.7143 69.1716 97.6928 69.2003C97.6643 69.2219 97.6786 69.2866 97.7214 69.3441C97.7857 69.4159 97.7786 69.4375 97.7071 69.4375C97.6428 69.4447 97.65 69.4734 97.7428 69.5453C97.8214 69.6028 97.85 69.6531 97.8 69.6531C97.7428 69.6531 97.7357 69.7034 97.7928 69.8472C97.8357 69.9622 97.8786 70.1131 97.8928 70.1922C97.95 70.5444 98.0857 71.6512 98.1 71.8453C98.1 71.9603 98.1357 72.0825 98.1786 72.1112C98.2286 72.1472 98.2214 72.1687 98.1786 72.1687C98.1357 72.1687 98.1 72.2334 98.1 72.3125C98.1 72.3916 98.1286 72.4562 98.1643 72.4562C98.2 72.4562 98.1928 72.4994 98.15 72.5569C98.0857 72.6359 98.0857 72.6647 98.1571 72.7006C98.2286 72.7366 98.2286 72.7509 98.1643 72.7869C98.0286 72.8444 98.05 72.9594 98.2 72.9594C98.2714 72.9594 98.2928 72.9809 98.2428 73.0169C98.1286 73.0887 98.1143 74.6125 98.2214 74.6125C98.2786 74.6125 98.2857 74.6412 98.2214 74.7059C98.1643 74.7778 98.1357 76.2512 98.1286 79.7875L98.1071 84.7756L97.8643 84.9194C97.6214 85.0631 97.4643 85.0631 85.6 85.0919C76.9143 85.1134 73.5786 85.0991 73.5428 85.0416C73.5143 84.9984 73.3857 84.9625 73.2571 84.9625C72.7643 84.9625 72.7928 85.3866 72.7857 78.4578C72.7786 75.015 72.7786 72.1903 72.7857 72.1687C72.7928 72.1472 72.8071 71.9387 72.8214 71.7016C72.85 71.2344 72.8928 70.8606 73.0071 70.1922C73.05 69.955 73.0928 69.6819 73.1 69.5812C73.1143 69.4806 73.1428 69.3512 73.1714 69.2866C73.2 69.2219 73.2286 69.0925 73.2428 68.9919C73.25 68.8984 73.2786 68.7906 73.3 68.7547C73.3214 68.7116 73.3643 68.5534 73.3928 68.3953C73.45 68.0934 73.7286 67.2525 73.9 66.8716C73.9571 66.7494 74 66.6272 74 66.5912C74 66.3541 75.3428 64.0325 75.7643 63.5437C76.0214 63.2419 77.1714 62.1062 77.4714 61.8547C78.2571 61.1862 80.3143 60.1297 81.0928 59.9931C81.1428 59.9859 81.2928 59.9428 81.4286 59.8925C81.8428 59.7559 83.3786 59.5187 84.1571 59.4756C84.5643 59.4469 84.9 59.4253 84.9071 59.4181C84.9357 59.3966 86.0214 59.4397 86.4643 59.4828Z" fill="#538AF1"/>
</svg>
