<svg class="svg-icon"  width="20" height="20" style="vertical-align: middle;fill: currentColor;overflow: hidden;" viewBox="0 0 1024 1024" version="1.1" xmlns="http://www.w3.org/2000/svg">
<path d="M1002.917647 370.447059v-60.235294h-150.588235v-120.470589h-120.470588v-150.588235h-60.235295v150.588235h-60.235294v-150.588235h-60.235294v150.588235h-60.235294v-150.588235h-60.235294v150.588235h-60.235294v-150.588235h-60.235294v150.588235h-120.470589v120.470589h-150.588235v60.235294h150.588235v60.235294h-150.588235v60.235294h150.588235v60.235294h-150.588235v60.235294h150.588235v60.235294h-150.588235v60.235295h150.588235v120.470588h120.470589v150.588235h60.235294v-150.588235h60.235294v150.588235h60.235294v-150.588235h60.235294v150.588235h60.235294v-150.588235h60.235294v150.588235h60.235295v-150.588235h120.470588v-120.470588h150.588235v-60.235295h-150.588235v-60.235294h150.588235v-60.235294h-150.588235v-60.235294h150.588235v-60.235294h-150.588235v-60.235294h150.588235z m-210.823529 421.647059h-542.117647v-542.117647h542.117647v542.117647z" fill="#2c2c2c" />
<path d="M701.741176 340.329412h-361.411764v361.411764h361.411764v-361.411764z m-60.235294 301.17647h-240.941176v-240.941176h240.941176v240.941176z" fill="#2c2c2c" />
</svg>